<svg width="191" height="46" viewBox="0 0 191 46" fill="none" xmlns="http://www.w3.org/2000/svg">
<g clip-path="url(#clip0_3595_1706)">
<path d="M6.63119 26.8845C5.41474 26.224 4.96403 24.7026 5.62451 23.4861L6.22246 22.3848L16.5531 27.9939C16.7559 28.104 16.8311 28.3575 16.721 28.5603L15.9237 30.0286C15.4833 30.8397 14.469 31.1401 13.658 30.6997L6.63119 26.8845Z" fill="#000042"/>
<path d="M41.4008 18.8556C42.6115 19.5267 43.0489 21.0522 42.3778 22.2628L41.7703 23.3589L30.9887 17.3826C30.787 17.2707 30.7141 17.0164 30.8258 16.8147L31.636 15.3533C32.0833 14.5462 33.1003 14.2546 33.9074 14.702L41.4008 18.8556Z" fill="#000042"/>
<path d="M18.061 41.5741C16.8445 40.9136 16.3937 39.392 17.0542 38.1755L17.6522 37.0742L27.7552 42.5597C27.958 42.6698 28.0331 42.9235 27.923 43.1261L27.1258 44.5946C26.6854 45.4055 25.6711 45.706 24.86 45.2657L18.061 41.5741Z" fill="#000042"/>
<path d="M20.4962 0.8042C21.7125 0.143719 23.2341 0.594424 23.8946 1.81088L24.4926 2.91218L6.50799 12.677L5.51139 10.8415C5.07108 10.0306 5.37154 9.01618 6.18252 8.57585L20.4962 0.8042Z" fill="#000042"/>
<path d="M41.3566 37.2791C42.5731 36.6185 43.0237 35.0971 42.3633 33.8806L41.7654 32.7793L23.332 42.7877L24.3286 44.6233C24.7689 45.4342 25.7833 45.7346 26.5942 45.2944L41.3566 37.2791Z" fill="#000042"/>
<path d="M30.305 31.5487C31.5215 30.8882 31.9723 29.3666 31.3117 28.1501L30.7138 27.0488L18.139 33.8764C16.9225 34.537 16.4719 36.0584 17.1323 37.2749L17.7302 38.3762L30.305 31.5487Z" fill="#000042"/>
<path d="M29.8795 11.7967C31.0959 11.1362 31.5466 9.61461 30.8862 8.39816L30.2881 7.29688L17.292 14.3533C16.4809 14.7936 16.1805 15.8079 16.6207 16.619L17.6173 18.4544L29.8795 11.7967Z" fill="#000042"/>
<path d="M29.9154 4.73305C31.127 5.40228 31.5668 6.92703 30.8976 8.1387L30.2916 9.23566L19.8047 3.44359L20.8145 1.61531C21.2606 0.807534 22.2771 0.514372 23.0849 0.960519L29.9154 4.73305Z" fill="#000042"/>
<path d="M30.7105 28.7244L31.3165 27.6274C31.9857 26.4157 31.5459 24.891 30.3343 24.2217L17.6832 17.2344L16.6734 19.0626C16.2273 19.8705 16.5204 20.8869 17.3281 21.3331L30.7105 28.7244Z" fill="#000042"/>
<path d="M5.26562 10.5708C5.26562 9.18656 6.38775 8.06445 7.77194 8.06445H9.02509V27.0706H7.77194C6.38775 27.0706 5.26562 25.9485 5.26562 24.5643V10.5708Z" fill="#000042"/>
<path d="M31.2126 7.0024C31.2126 5.61821 30.0904 4.49609 28.7062 4.49609H27.4531V12.015H28.7062C30.0904 12.015 31.2126 10.8929 31.2126 9.50872V7.0024Z" fill="#000042"/>
<path d="M31.6346 26.5257C31.6346 25.1415 30.5125 24.0195 29.1283 24.0195H27.875V31.8516H29.1283C30.5125 31.8516 31.6346 30.7296 31.6346 29.3454V26.5257Z" fill="#000042"/>
<path d="M42.6774 21.1001C42.6774 19.7159 41.5553 18.5938 40.1711 18.5938H38.918V37.5477H40.1711C41.5553 37.5477 42.6774 36.4256 42.6774 35.0414V21.1001Z" fill="#000042"/>
<path d="M16.6758 36.1351C16.6758 34.7509 17.7979 33.6289 19.1821 33.6289H20.4352V41.8266H19.1821C17.7979 41.8266 16.6758 40.7044 16.6758 39.3202V36.1351Z" fill="#000042"/>
<path d="M16.3828 15.9814C16.3828 15.0586 17.1309 14.3105 18.0537 14.3105H20.1423V21.5162H18.0537C17.1309 21.5162 16.3828 20.7682 16.3828 19.8454V15.9814Z" fill="#000042"/>
<path d="M53.8828 27.6367H57.4801C57.4801 28.8016 58.017 29.8066 59.0904 30.6517C60.1867 31.4968 61.5915 31.9193 63.3045 31.9193C65.1774 31.9193 66.5592 31.5995 67.45 30.9599C68.3407 30.2977 68.7861 29.4182 68.7861 28.3219C68.7861 26.5633 67.4157 25.4212 64.6749 24.8959L60.0496 24.0394C58.1767 23.6968 56.7607 22.9772 55.8013 21.8809C54.8649 20.7845 54.3967 19.3913 54.3967 17.7011C54.3967 15.6911 55.1733 14.0238 56.7264 12.6991C58.2796 11.3515 60.358 10.6777 62.9619 10.6777C65.8398 10.6777 68.0667 11.4086 69.6426 12.8704C71.2414 14.3094 72.0409 16.148 72.0409 18.3863H68.4435C68.4435 17.2216 67.941 16.2166 66.9361 15.3714C65.9311 14.5263 64.6063 14.1038 62.9619 14.1038C61.4086 14.1038 60.1867 14.4578 59.296 15.1659C58.428 15.851 57.994 16.6961 57.994 17.7011C57.994 19.3913 59.1931 20.4763 61.5915 20.956L65.3601 21.6412C67.7812 22.0751 69.5512 22.8289 70.6705 23.9023C71.8125 24.953 72.3835 26.4262 72.3835 28.3219C72.3835 30.3776 71.5954 32.0677 70.0195 33.3925C68.4435 34.6943 66.2052 35.3453 63.3045 35.3453C60.4038 35.3453 58.1083 34.6144 56.4181 33.1526C54.7279 31.6909 53.8828 29.8522 53.8828 27.6367ZM75.6382 35.0027V11.0203H79.0642V19.5854H79.2355C79.6239 19.1972 80.0464 18.8546 80.5032 18.5576C81.5995 17.8724 82.833 17.5298 84.2034 17.5298C86.2819 17.5298 87.9378 18.1808 89.1712 19.4827C90.4273 20.7617 91.0555 22.5091 91.0555 24.7246V35.0027H87.6294V24.7246C87.6294 23.6054 87.2298 22.646 86.4303 21.8467C85.6537 21.0244 84.6831 20.6132 83.5182 20.6132C82.2619 20.6132 81.1999 21.0244 80.3319 21.8467C79.4868 22.646 79.0642 23.6054 79.0642 24.7246V35.0027H75.6382ZM98.664 30.6859C99.6462 31.7366 100.879 32.2619 102.364 32.2619C103.849 32.2619 105.071 31.7366 106.03 30.6859C107.012 29.6123 107.503 28.1963 107.503 26.4376C107.503 24.6788 107.012 23.2742 106.03 22.2235C105.071 21.1501 103.849 20.6132 102.364 20.6132C100.879 20.6132 99.6462 21.1501 98.664 22.2235C97.7047 23.2742 97.225 24.6788 97.225 26.4376C97.225 28.1963 97.7047 29.6123 98.664 30.6859ZM108.497 32.8786C106.898 34.523 104.854 35.3453 102.364 35.3453C99.8745 35.3453 97.8189 34.523 96.1972 32.8786C94.5984 31.2341 93.799 29.087 93.799 26.4376C93.799 23.7881 94.5984 21.6412 96.1972 19.9966C97.8189 18.3521 99.8745 17.5298 102.364 17.5298C104.854 17.5298 106.898 18.3521 108.497 19.9966C110.118 21.6412 110.929 23.7881 110.929 26.4376C110.929 29.087 110.118 31.2341 108.497 32.8786ZM126.692 35.0027L126.349 32.9471H126.178C124.967 34.546 123.197 35.3453 120.868 35.3453C118.584 35.3453 116.699 34.5344 115.215 32.9128C113.73 31.2911 112.988 29.1328 112.988 26.4376C112.988 23.7424 113.73 21.584 115.215 19.9624C116.699 18.3407 118.584 17.5298 120.868 17.5298C121.872 17.5298 122.786 17.7125 123.608 18.0781C124.453 18.4207 125.002 18.7175 125.253 18.9688C125.504 19.1972 125.812 19.517 126.178 19.928H126.349V11.0203H129.775V35.0027H126.692ZM117.818 30.6517C118.778 31.7251 119.965 32.2619 121.381 32.2619C122.797 32.2619 123.974 31.7251 124.91 30.6517C125.87 29.5781 126.349 28.1735 126.349 26.4376C126.349 24.7018 125.87 23.297 124.91 22.2235C123.974 21.1501 122.797 20.6132 121.381 20.6132C119.965 20.6132 118.778 21.1501 117.818 22.2235C116.882 23.297 116.414 24.7018 116.414 26.4376C116.414 28.1735 116.882 29.5781 117.818 30.6517ZM133.873 35.0027V11.0203H137.299V19.5854H137.47C137.859 19.1972 138.281 18.8546 138.738 18.5576C139.834 17.8724 141.068 17.5298 142.438 17.5298C144.517 17.5298 146.173 18.1808 147.406 19.4827C148.662 20.7617 149.29 22.5091 149.29 24.7246V35.0027H145.864V24.7246C145.864 23.6054 145.465 22.646 144.665 21.8467C143.889 21.0244 142.918 20.6132 141.753 20.6132C140.497 20.6132 139.435 21.0244 138.567 21.8467C137.722 22.646 137.299 23.6054 137.299 24.7246V35.0027H133.873ZM158.042 35.0027L166.778 11.0203H172.259L180.997 35.0027H177.056L175.001 29.3497H164.038L161.981 35.0027H158.042ZM165.236 26.095H173.801L169.861 15.1316H169.177L165.236 26.095ZM182.878 35.0027V11.0203H186.475V35.0027H182.878Z" fill="#000042"/>
</g>
<defs>
<clipPath id="clip0_3595_1706">
<rect width="190.5" height="45" fill="white" transform="translate(0 0.5)"/>
</clipPath>
</defs>
</svg>